<svg width="48" height="48" viewBox="0 0 48 48" fill="none" xmlns="http://www.w3.org/2000/svg">
<path d="M15.8182 28.6364C21.2406 28.6364 25.6364 24.2406 25.6364 18.8182C25.6364 13.3957 21.2406 9 15.8182 9C10.3957 9 6 13.3957 6 18.8182C6 24.2406 10.3957 28.6364 15.8182 28.6364Z" fill="#4285F4"/>
<path d="M32.182 28.6365C34.8933 28.6365 37.0911 26.4387 37.0911 23.7275C37.0911 21.0162 34.8933 18.8184 32.182 18.8184C29.4708 18.8184 27.2729 21.0162 27.2729 23.7275C27.2729 26.4387 29.4708 28.6365 32.182 28.6365Z" fill="#EA4335"/>
<path d="M32.1819 41.727C35.3449 41.727 37.9091 39.1628 37.9091 35.9997C37.9091 32.8366 35.3449 30.2725 32.1819 30.2725C29.0188 30.2725 26.4546 32.8366 26.4546 35.9997C26.4546 39.1628 29.0188 41.727 32.1819 41.727Z" fill="#FBBC05"/>
<path d="M39.5454 20.4545C40.901 20.4545 41.9999 19.3556 41.9999 18C41.9999 16.6443 40.901 15.5454 39.5454 15.5454C38.1898 15.5454 37.0908 16.6443 37.0908 18C37.0908 19.3556 38.1898 20.4545 39.5454 20.4545Z" fill="#34A853"/>
</svg>
